<?xml version="1.0" encoding="UTF-8"?>
<svg width="512px" height="512px" viewBox="0 0 512 512" version="1.1" xmlns="http://www.w3.org/2000/svg" xmlns:xlink="http://www.w3.org/1999/xlink">
    <title>fitness</title>
    <g id="Page-1" stroke="none" stroke-width="1" fill="none" fill-rule="evenodd">
        <g id="fitness" fill-rule="nonzero">
            <g id="Group" transform="translate(8.000000, 8.000000)">
                <g transform="translate(111.000000, 94.000000)" fill="#CFD8DC" id="Rectangle">
                    <rect x="0.467" y="256.4" width="34.133" height="51.2"></rect>
                    <rect x="119.933" y="256.4" width="34.133" height="51.2"></rect>
                    <rect x="239.4" y="256.4" width="34.133" height="51.2"></rect>
                    <rect x="0.467" y="0.4" width="34.133" height="51.2"></rect>
                    <rect x="119.933" y="0.4" width="34.133" height="51.2"></rect>
                    <rect x="239.4" y="0.4" width="34.133" height="51.2"></rect>
                </g>
                <g transform="translate(85.000000, 128.000000)" fill="#1F5BFD" id="Path">
                    <path d="M86.2,9.067 L86.2,26.134 C86.186,30.841 82.374,34.653 77.667,34.667 L77.667,51.734 L9.4,51.734 L9.4,34.667 C4.693,34.653 0.881,30.841 0.867,26.134 L0.867,9.067 C0.881,4.36 4.693,0.548 9.4,0.534 L77.667,0.534 C82.374,0.547 86.186,4.36 86.2,9.067 Z"></path>
                    <path d="M86.2,213.867 L86.2,230.934 C86.186,235.641 82.374,239.453 77.667,239.467 L9.4,239.467 C4.693,239.453 0.881,235.641 0.867,230.934 L0.867,213.867 C0.881,209.16 4.693,205.348 9.4,205.334 L9.4,188.267 L77.667,188.267 L77.667,205.334 C82.374,205.347 86.186,209.16 86.2,213.867 Z"></path>
                    <path d="M205.667,9.067 L205.667,26.134 C205.653,30.841 201.841,34.653 197.134,34.667 L197.134,51.734 L128.867,51.734 L128.867,34.667 C124.16,34.653 120.348,30.841 120.334,26.134 L120.334,9.067 C120.348,4.36 124.16,0.548 128.867,0.534 L197.134,0.534 C201.84,0.547 205.653,4.36 205.667,9.067 Z"></path>
                    <path d="M205.667,213.867 L205.667,230.934 C205.653,235.641 201.841,239.453 197.134,239.467 L128.867,239.467 C124.16,239.453 120.348,235.641 120.334,230.934 L120.334,213.867 C120.348,209.16 124.16,205.348 128.867,205.334 L128.867,188.267 L197.134,188.267 L197.134,205.334 C201.84,205.347 205.653,209.16 205.667,213.867 Z"></path>
                    <path d="M325.133,9.067 L325.133,26.134 C325.119,30.841 321.307,34.653 316.6,34.667 L316.6,51.734 L248.333,51.734 L248.333,34.667 C243.626,34.653 239.814,30.841 239.8,26.134 L239.8,9.067 C239.814,4.36 243.626,0.548 248.333,0.534 L316.6,0.534 C321.307,0.547 325.119,4.36 325.133,9.067 Z"></path>
                    <path d="M325.133,213.867 L325.133,230.934 C325.119,235.641 321.307,239.453 316.6,239.467 L248.333,239.467 C243.626,239.453 239.814,235.641 239.8,230.934 L239.8,213.867 C239.814,209.16 243.626,205.348 248.333,205.334 L248.333,188.267 L316.6,188.267 L316.6,205.334 C321.307,205.347 325.119,209.16 325.133,213.867 Z"></path>
                </g>
                <rect id="Rectangle" fill="#863AB9" x="9.067" y="230.933" width="477.867" height="34.133"></rect>
                <g transform="translate(111.000000, 179.000000)" fill="#CFD8DC" id="Rectangle">
                    <rect x="0.467" y="0.733" width="34.133" height="136.533"></rect>
                    <rect x="119.933" y="0.733" width="34.133" height="136.533"></rect>
                    <rect x="239.4" y="0.733" width="34.133" height="136.533"></rect>
                </g>
                <g fill="#863AB9" id="Path">
                    <path d="M9.067,0.533 L26.134,0.533 C30.847,0.533 34.667,4.354 34.667,9.066 L34.667,486.933 C34.667,491.646 30.846,495.466 26.134,495.466 L9.067,495.466 C4.354,495.466 0.533999804,491.645 0.533999804,486.933 L0.533999804,9.067 C0.533,4.354 4.354,0.533 9.067,0.533 Z"></path>
                    <path d="M486.933,495.467 L469.866,495.467 C465.153,495.467 461.333,491.646 461.333,486.934 L461.333,9.067 C461.333,4.354 465.154,0.534 469.866,0.534 L486.933,0.534 C491.646,0.534 495.466,4.355 495.466,9.067 L495.466,486.934 C495.467,491.646 491.646,495.467 486.933,495.467 Z"></path>
                </g>
                <g transform="translate(68.000000, 162.000000)" fill="#1F5BFD" id="Path">
                    <path d="M111.733,34.8 L9.333,34.8 C4.62,34.8 0.8,30.979 0.8,26.267 L0.8,9.2 C0.8,4.487 4.621,0.667 9.333,0.667 L111.733,0.667 C116.446,0.667 120.266,4.488 120.266,9.2 L120.266,26.267 C120.266,30.98 116.446,34.8 111.733,34.8 Z"></path>
                    <path d="M9.333,137.2 L111.733,137.2 C116.446,137.2 120.266,141.021 120.266,145.733 L120.266,162.8 C120.266,167.513 116.445,171.333 111.733,171.333 L9.333,171.333 C4.62,171.333 0.8,167.513 0.8,162.8 L0.8,145.733 C0.8,141.021 4.621,137.2 9.333,137.2 Z"></path>
                    <path d="M231.2,34.8 L128.8,34.8 C124.087,34.8 120.267,30.979 120.267,26.267 L120.267,9.2 C120.267,4.487 124.088,0.667 128.8,0.667 L231.2,0.667 C235.913,0.667 239.733,4.488 239.733,9.2 L239.733,26.267 C239.733,30.98 235.913,34.8 231.2,34.8 Z"></path>
                    <path d="M128.8,137.2 L231.2,137.2 C235.913,137.2 239.733,141.021 239.733,145.733 L239.733,162.8 C239.733,167.513 235.913,171.333 231.2,171.333 L128.8,171.333 C124.087,171.333 120.267,167.513 120.267,162.8 L120.267,145.733 C120.267,141.021 124.087,137.2 128.8,137.2 Z"></path>
                    <path d="M350.667,34.8 L248.267,34.8 C243.554,34.8 239.734,30.979 239.734,26.267 L239.734,9.2 C239.734,4.487 243.555,0.667 248.267,0.667 L350.667,0.667 C355.38,0.667 359.2,4.488 359.2,9.2 L359.2,26.267 C359.2,30.98 355.38,34.8 350.667,34.8 Z"></path>
                    <path d="M248.267,137.2 L350.667,137.2 C355.38,137.2 359.2,141.021 359.2,145.733 L359.2,162.8 C359.2,167.513 355.38,171.333 350.667,171.333 L248.267,171.333 C243.554,171.333 239.734,167.513 239.734,162.8 L239.734,145.733 C239.734,141.021 243.554,137.2 248.267,137.2 Z"></path>
                </g>
            </g>
            <path d="M494.933,0 L477.866,0 C468.445,0.011 460.81,7.645 460.799,17.067 L460.799,230.4 L401.066,230.4 L401.066,213.333 L426.666,213.333 C436.087,213.322 443.722,205.688 443.733,196.266 L443.733,179.2 C443.722,169.779 436.088,162.144 426.666,162.133 L426.666,145.066 C426.655,135.645 419.021,128.01 409.599,127.999 L401.066,127.999 L401.066,102.399 C401.067,100.136 400.168,97.965 398.567,96.364 C396.967,94.764 394.796,93.865 392.532,93.865 L358.4,93.865 C356.137,93.864 353.966,94.763 352.365,96.364 C350.765,97.964 349.866,100.135 349.866,102.399 L349.866,128 L341.333,128 C331.912,128.011 324.277,135.645 324.266,145.067 L324.266,162.134 C321.261,162.151 318.315,162.971 315.733,164.508 C313.151,162.971 310.205,162.151 307.2,162.134 L307.2,145.067 C307.189,135.646 299.555,128.011 290.133,128 L281.6,128 L281.6,102.4 C281.601,100.137 280.702,97.966 279.101,96.365 C277.501,94.765 275.33,93.866 273.066,93.866 L238.933,93.866 C236.67,93.865 234.499,94.764 232.898,96.365 C231.298,97.965 230.399,100.136 230.399,102.4 L230.399,128 L221.866,128 C212.445,128.011 204.81,135.645 204.799,145.067 L204.799,162.134 C201.794,162.151 198.848,162.971 196.266,164.508 C193.684,162.971 190.738,162.151 187.733,162.134 L187.733,145.067 C187.722,135.646 180.088,128.011 170.666,128 L162.133,128 L162.133,102.4 C162.134,100.137 161.235,97.966 159.634,96.365 C158.034,94.765 155.863,93.866 153.599,93.866 L119.466,93.866 C117.203,93.865 115.032,94.764 113.431,96.365 C111.83,97.966 110.932,100.136 110.932,102.4 L110.932,128 L102.4,128 C92.979,128.011 85.344,135.645 85.333,145.067 L85.333,162.134 C75.912,162.145 68.277,169.779 68.266,179.201 L68.266,196.268 C68.277,205.689 75.911,213.324 85.333,213.335 L110.933,213.335 L110.933,230.4 L51.2,230.4 L51.2,17.067 C51.189,7.645 43.555,0.011 34.133,0 L17.067,0 C7.645,0.011 0.011,7.645 0,17.067 L0,494.934 C0.011,504.355 7.645,511.99 17.067,512.001 L34.134,512.001 C43.555,511.99 51.19,504.356 51.201,494.934 L51.201,281.6 L110.934,281.6 L110.934,298.667 L85.334,298.667 C75.913,298.678 68.278,306.312 68.267,315.734 L68.267,332.8 C68.278,342.221 75.912,349.856 85.334,349.867 L85.334,366.934 C85.345,376.355 92.979,383.99 102.401,384.001 L110.934,384.001 L110.934,409.601 C110.933,411.864 111.832,414.035 113.433,415.636 C115.034,417.237 117.204,418.135 119.468,418.135 L153.6,418.135 C155.863,418.136 158.034,417.237 159.635,415.636 C161.235,414.036 162.134,411.865 162.134,409.601 L162.134,384 L170.667,384 C180.088,383.989 187.723,376.355 187.734,366.933 L187.734,349.866 C190.739,349.849 193.685,349.029 196.267,347.492 C198.849,349.029 201.795,349.849 204.8,349.866 L204.8,366.933 C204.811,376.354 212.445,383.989 221.867,384 L230.4,384 L230.4,409.6 C230.399,411.863 231.298,414.034 232.899,415.635 C234.499,417.235 236.67,418.134 238.934,418.134 L273.067,418.134 C275.33,418.135 277.501,417.236 279.102,415.635 C280.702,414.035 281.601,411.864 281.601,409.6 L281.601,384 L290.134,384 C299.555,383.989 307.19,376.355 307.201,366.933 L307.201,349.866 C310.206,349.849 313.152,349.029 315.734,347.492 C318.316,349.029 321.262,349.849 324.267,349.866 L324.267,366.933 C324.278,376.354 331.912,383.989 341.334,384 L349.867,384 L349.867,409.6 C349.866,411.863 350.765,414.034 352.366,415.635 C353.966,417.235 356.137,418.134 358.401,418.134 L392.534,418.134 C394.797,418.135 396.968,417.236 398.569,415.635 C400.169,414.035 401.068,411.864 401.068,409.6 L401.068,384 L409.601,384 C419.022,383.989 426.657,376.355 426.668,366.933 L426.668,349.866 C436.089,349.855 443.724,342.221 443.735,332.799 L443.735,315.732 C443.724,306.311 436.09,298.676 426.668,298.665 L401.068,298.665 L401.068,281.6 L460.8,281.6 L460.8,494.933 C460.811,504.354 468.445,511.989 477.867,512.001 L494.934,512.001 C504.355,511.989 511.99,504.355 512.001,494.933 L512.001,17.067 C511.989,7.645 504.355,0.011 494.933,0 Z M366.933,110.933 L384,110.933 L384,128 L366.933,128 L366.933,110.933 Z M341.333,145.067 L409.6,145.067 L409.6,162.134 L341.333,162.134 L341.333,145.067 Z M341.333,179.2 L426.666,179.2 L426.666,196.267 L324.266,196.267 L324.266,179.2 L341.333,179.2 Z M324.267,298.667 C321.262,298.684 318.316,299.504 315.734,301.041 C313.152,299.504 310.206,298.684 307.201,298.667 L281.601,298.667 L281.601,281.6 L349.868,281.6 L349.868,298.667 L324.267,298.667 L324.267,298.667 Z M204.8,298.667 C201.795,298.684 198.849,299.504 196.267,301.041 C193.685,299.504 190.739,298.684 187.734,298.667 L162.134,298.667 L162.134,281.6 L230.4,281.6 L230.4,298.667 L204.8,298.667 L204.8,298.667 Z M187.733,213.333 C190.738,213.316 193.684,212.496 196.266,210.959 C198.848,212.496 201.794,213.316 204.799,213.333 L230.399,213.333 L230.399,230.4 L162.132,230.4 L162.132,213.333 L187.733,213.333 Z M162.133,247.467 L230.4,247.467 L230.4,264.534 L162.133,264.534 L162.133,247.467 Z M247.467,213.333 L264.534,213.333 L264.534,298.666 L247.467,298.666 L247.467,213.333 L247.467,213.333 Z M349.867,264.533 L281.6,264.533 L281.6,247.466 L349.867,247.466 L349.867,264.533 Z M349.867,230.4 L281.6,230.4 L281.6,213.333 L307.2,213.333 C310.205,213.316 313.151,212.496 315.733,210.959 C318.315,212.496 321.261,213.316 324.266,213.333 L349.866,213.333 L349.866,230.4 L349.867,230.4 Z M247.467,110.933 L264.534,110.933 L264.534,128 L247.467,128 L247.467,110.933 L247.467,110.933 Z M221.867,145.067 L290.134,145.067 L290.134,162.134 L221.867,162.134 L221.867,145.067 L221.867,145.067 Z M221.867,179.2 L307.2,179.2 L307.2,196.267 L204.8,196.267 L204.8,179.2 L221.867,179.2 Z M128,110.933 L145.067,110.933 L145.067,128 L128,128 L128,110.933 Z M102.4,145.067 L170.667,145.067 L170.667,162.134 L102.4,162.134 L102.4,145.067 Z M85.333,179.2 L187.733,179.2 L187.733,196.267 L85.333,196.267 L85.333,179.2 Z M17.067,494.933 L17.067,17.067 L34.134,17.067 L34.138,238.914 L34.134,238.933 L34.134,273.066 L34.139,273.088 L34.143,494.933 L17.067,494.933 Z M51.2,264.533 L51.2,247.466 L110.933,247.466 L110.933,264.533 L51.2,264.533 Z M128,213.333 L145.067,213.333 L145.067,298.666 L128,298.666 L128,213.333 Z M145.067,401.067 L128,401.067 L128,384 L145.067,384 L145.067,401.067 Z M170.667,366.933 L102.4,366.933 L102.4,349.866 L170.667,349.866 L170.667,366.933 Z M170.667,332.8 L85.333,332.8 L85.333,315.733 L187.733,315.733 L187.733,332.8 L170.667,332.8 Z M264.533,401.067 L247.466,401.067 L247.466,384 L264.533,384 L264.533,401.067 Z M290.133,366.933 L221.866,366.933 L221.866,349.866 L290.133,349.866 L290.133,366.933 Z M290.133,332.8 L204.8,332.8 L204.8,315.733 L307.2,315.733 L307.2,332.8 L290.133,332.8 Z M384,401.067 L366.933,401.067 L366.933,384 L384,384 L384,401.067 Z M409.6,366.933 L341.333,366.933 L341.333,349.866 L409.6,349.866 L409.6,366.933 Z M426.667,332.8 L324.267,332.8 L324.267,315.733 L426.667,315.733 L426.667,332.8 L426.667,332.8 Z M366.933,298.667 L366.933,213.334 L384,213.334 L384,298.667 L366.933,298.667 Z M401.067,264.533 L401.067,247.466 L460.8,247.466 L460.8,264.533 L401.067,264.533 Z M494.933,494.933 L477.866,494.933 L477.866,17.067 L494.933,17.067 L494.933,494.933 Z" id="Shape" fill="#000000"></path>
        </g>
    </g>
</svg>